<?xml version="1.0" encoding="UTF-8" standalone="no"?>
<!-- Created with Inkscape (http://www.inkscape.org/) -->

<svg
   xmlns:dc="http://purl.org/dc/elements/1.1/"
   xmlns:cc="http://creativecommons.org/ns#"
   xmlns:rdf="http://www.w3.org/1999/02/22-rdf-syntax-ns#"
   xmlns:svg="http://www.w3.org/2000/svg"
   xmlns="http://www.w3.org/2000/svg"
   xmlns:xlink="http://www.w3.org/1999/xlink"
   xmlns:sodipodi="http://sodipodi.sourceforge.net/DTD/sodipodi-0.dtd"
   xmlns:inkscape="http://www.inkscape.org/namespaces/inkscape"
   width="34"
   height="34"
   viewBox="0 0 8.99572 8.99572"
   version="1.1"
   id="svg8"
   inkscape:version="0.92.3 (2405546, 2018-03-11)"
   sodipodi:docname="favicon-shades.svg">
  <defs
     id="defs2">
    <linearGradient
       inkscape:collect="always"
       id="linearGradient927">
      <stop
         style="stop-color:#447de8;stop-opacity:1;"
         offset="0"
         id="stop923" />
      <stop
         id="stop937"
         offset="0.30574065"
         style="stop-color:#447de8;stop-opacity:1" />
      <stop
         style="stop-color:#447de8;stop-opacity:0;"
         offset="1"
         id="stop925" />
    </linearGradient>
    <filter
       inkscape:collect="always"
       style="color-interpolation-filters:sRGB"
       id="filter911"
       x="-0.62839107"
       width="2.2567821"
       y="-0.29252673"
       height="1.5850535">
      <feGaussianBlur
         inkscape:collect="always"
         stdDeviation="0.20132772"
         id="feGaussianBlur913" />
    </filter>
    <linearGradient
       inkscape:collect="always"
       xlink:href="#linearGradient927"
       id="linearGradient929"
       x1="5.1013856"
       y1="293.20157"
       x2="7.9652119"
       y2="294.44553"
       gradientUnits="userSpaceOnUse"
       gradientTransform="matrix(4.0782228,0,0,4.0782228,-1.2898075,-1176.1168)" />
  </defs>
  <sodipodi:namedview
     id="base"
     pagecolor="#ffffff"
     bordercolor="#666666"
     borderopacity="1.0"
     inkscape:pageopacity="0.0"
     inkscape:pageshadow="2"
     inkscape:zoom="4"
     inkscape:cx="37.200631"
     inkscape:cy="21.946546"
     inkscape:document-units="px"
     inkscape:current-layer="layer1"
     showgrid="false"
     borderlayer="true"
     inkscape:showpageshadow="false"
     units="px"
     inkscape:pagecheckerboard="true"
     inkscape:window-width="1024"
     inkscape:window-height="713"
     inkscape:window-x="0"
     inkscape:window-y="27"
     inkscape:window-maximized="1"
     showguides="false"
     inkscape:guide-bbox="true">
    <sodipodi:guide
       position="4.1516323,3.5852657"
       orientation="0,1"
       id="guide833"
       inkscape:locked="false" />
    <sodipodi:guide
       position="4.7159318,5.5685822"
       orientation="0,1"
       id="guide835"
       inkscape:locked="false" />
    <sodipodi:guide
       position="-0.6314163,8.6527419"
       orientation="0.60948229,0.79279968"
       id="guide917"
       inkscape:locked="false" />
    <sodipodi:guide
       position="9.1321507,-0.07016"
       orientation="1,0"
       id="guide919"
       inkscape:locked="false" />
    <sodipodi:guide
       position="9.1321507,-0.07016"
       orientation="0,1"
       id="guide921"
       inkscape:locked="false" />
  </sodipodi:namedview>
  <metadata
     id="metadata5">
    <rdf:RDF>
      <cc:Work
         rdf:about="">
        <dc:format>image/svg+xml</dc:format>
        <dc:type
           rdf:resource="http://purl.org/dc/dcmitype/StillImage" />
        <dc:title />
      </cc:Work>
    </rdf:RDF>
  </metadata>
  <g
     inkscape:label="Capa 1"
     inkscape:groupmode="layer"
     id="layer1"
     transform="translate(0,-288.00053)">
    <rect
       style="fill:#4498ff;fill-rule:evenodd;stroke-width:0.27112183;fill-opacity:0.98431373"
       id="rect840"
       width="8.8114595"
       height="8.8114595"
       x="0.092130229"
       y="288.09265"
       ry="0.82304728" />
    <path
       style="fill:url(#linearGradient929);fill-opacity:1;stroke:none;stroke-width:1.07901633px;stroke-linecap:butt;stroke-linejoin:miter;stroke-opacity:1"
       d="M 21.425781 7.0722656 L 12.873047 9.7792969 L 13.541016 15.261719 L 21.552734 19.554688 L 21.980469 23.226562 L 16.925781 25.324219 L 12.347656 26.324219 L 21.878906 33.652344 L 32.6875 33.652344 L 33.652344 33.652344 L 33.652344 16.558594 L 21.425781 7.0722656 z "
       transform="matrix(0.26458,0,0,0.26458,0,288.00053)"
       id="path915" />
    <g
       id="g949"
       transform="translate(0.10599133,0.27849796)">
      <g
         id="text835"
         style="font-style:normal;font-variant:normal;font-weight:bold;font-stretch:normal;font-size:6.86087465px;line-height:1.20000005;font-family:'DM Sans';-inkscape-font-specification:'DM Sans, Bold';font-variant-ligatures:normal;font-variant-caps:normal;font-variant-numeric:normal;font-feature-settings:normal;text-align:center;letter-spacing:-0.17066935px;word-spacing:0px;writing-mode:lr-tb;text-anchor:middle;opacity:1;fill:#f2f2f2;fill-opacity:1;stroke:#f2f2f2;stroke-width:0.22487704;stroke-miterlimit:4;stroke-dasharray:none;stroke-opacity:1"
         transform="matrix(1.0314222,0,0,1.1281837,-0.46983395,-23.384622)"
         aria-label="S">
        <path
           sodipodi:nodetypes="scccccscsccs"
           inkscape:connector-curvature="0"
           id="path840"
           style="font-style:normal;font-variant:normal;font-weight:bold;font-stretch:normal;font-size:6.86087465px;font-family:'DM Sans';-inkscape-font-specification:'DM Sans, Bold';font-variant-ligatures:normal;font-variant-caps:normal;font-variant-numeric:normal;font-feature-settings:normal;text-align:center;writing-mode:lr-tb;text-anchor:middle;fill:#f2f2f2;fill-opacity:1;stroke:#f2f2f2;stroke-width:0.22487704;stroke-miterlimit:4;stroke-dasharray:none;stroke-opacity:1"
           d="m 4.7658593,282.15743 c -0.3521915,0 -0.6632179,-0.0595 -0.933079,-0.17838 -0.2698611,-0.12349 -0.4825482,-0.2973 -0.6380613,-0.52142 -0.1555131,-0.2287 -0.2355567,-0.50542 -0.2401306,-0.83017 h 0.9262181 c 0.00915,0.22412 0.089192,0.41394 0.2401306,0.56945 0.1555131,0.15094 0.3682002,0.22641 0.6380613,0.22641 0.2332697,0 0.4185134,-0.0549 0.5557309,-0.16466 0.1372175,-0.11435 0.2058262,-0.26529 0.2058262,-0.45282 0,-0.19668 -0.061748,-0.34991 -0.1852436,-0.45968 0,0 0.9302328,0.52638 0.3567655,1.61917 -0.2485081,0.14484 -0.5603048,0.1921 -0.9262181,0.1921 z" />
      </g>
      <g
         aria-label="S"
         transform="matrix(1.0314222,0,0,1.1281837,-0.47065653,-23.384636)"
         style="font-style:normal;font-variant:normal;font-weight:bold;font-stretch:normal;font-size:6.86087465px;line-height:1.20000005;font-family:'DM Sans';-inkscape-font-specification:'DM Sans, Bold';font-variant-ligatures:normal;font-variant-caps:normal;font-variant-numeric:normal;font-feature-settings:normal;text-align:center;letter-spacing:-0.17066935px;word-spacing:0px;writing-mode:lr-tb;text-anchor:middle;opacity:0.55899999;fill:#000000;fill-opacity:1;stroke:#000000;stroke-width:0.22487704;stroke-miterlimit:4;stroke-dasharray:none;stroke-opacity:1;filter:url(#filter911)"
         id="g845">
        <path
           d="m 5.3353119,280.34616 c 0.6912309,-0.11497 0.9522821,0.92039 0.6353984,1.43497 -0.082469,0.0683 -0.1906326,0.16048 -0.3092056,0.20796 0.2649398,-0.86766 0.01566,-1.31082 -0.3261928,-1.64293 z"
           style="font-style:normal;font-variant:normal;font-weight:bold;font-stretch:normal;font-size:6.86087465px;font-family:'DM Sans';-inkscape-font-specification:'DM Sans, Bold';font-variant-ligatures:normal;font-variant-caps:normal;font-variant-numeric:normal;font-feature-settings:normal;text-align:center;writing-mode:lr-tb;text-anchor:middle;fill:#000000;fill-opacity:1;stroke:#000000;stroke-width:0.22487704;stroke-miterlimit:4;stroke-dasharray:none;stroke-opacity:1"
           id="path843"
           inkscape:connector-curvature="0"
           sodipodi:nodetypes="cccc" />
      </g>
      <g
         id="text828"
         style="font-style:normal;font-variant:normal;font-weight:bold;font-stretch:normal;font-size:6.86087465px;line-height:1.20000005;font-family:'DM Sans';-inkscape-font-specification:'DM Sans, Bold';font-variant-ligatures:normal;font-variant-caps:normal;font-variant-numeric:normal;font-feature-settings:normal;text-align:center;letter-spacing:-0.17066935px;word-spacing:0px;writing-mode:lr-tb;text-anchor:middle;fill:#ffffff;fill-opacity:1;stroke:#ffffff;stroke-width:0.22487704;stroke-miterlimit:4;stroke-dasharray:none;stroke-opacity:1"
         transform="matrix(1.0314222,0,0,1.1281837,-0.46983395,-23.384622)"
         aria-label="S">
        <path
           sodipodi:nodetypes="cscccccscccccccscccscssscc"
           inkscape:connector-curvature="0"
           id="path837"
           style="font-style:normal;font-variant:normal;font-weight:bold;font-stretch:normal;font-size:6.86087465px;font-family:'DM Sans';-inkscape-font-specification:'DM Sans, Bold';font-variant-ligatures:normal;font-variant-caps:normal;font-variant-numeric:normal;font-feature-settings:normal;text-align:center;writing-mode:lr-tb;text-anchor:middle;fill:#ffffff;fill-opacity:1;stroke:#ffffff;stroke-width:0.22487704;stroke-miterlimit:4;stroke-dasharray:none;stroke-opacity:1"
           d="M 5.3353119,280.34616 C 5.2163901,280.23639 5.056303,280.1472 4.8550507,280.07859 4.6537984,280.00998 4.4388243,279.9368 4.2101285,279.85904 3.8396412,279.73097 3.5560584,279.56631 3.35938,279.36506 c -0.1921045,-0.20125 -0.2881567,-0.46883 -0.2881567,-0.80272 -0.00457,-0.28359 0.061748,-0.52601 0.1989653,-0.72726 0.1417914,-0.20583 0.3338959,-0.36363 0.5763135,-0.4734 0.2424176,-0.11435 0.5214265,-0.17152 0.8370267,-0.17152 0.3201741,0 0.60147,0.0572 0.8438876,0.17152 0.2469915,0.11435 0.439096,0.27443 0.5763135,0.48026 0.1417914,0.20583 0.217261,0.45053 0.2264088,0.73412 H 5.3901989 c -0.00457,-0.16923 -0.070895,-0.31789 -0.1989654,-0.44596 -0.1234957,-0.13264 -0.2973045,-0.19896 -0.5214264,-0.19896 -0.1921045,-0.005 -0.3544786,0.0434 -0.4871221,0.14407 -0.1280697,0.096 -0.1921045,0.23785 -0.1921045,0.42538 0,0.16009 0.050313,0.28816 0.1509392,0.38421 0.1006261,0.0915 0.2378436,0.16923 0.4116525,0.23327 0.1738088,0.064 0.3727742,0.13261 0.5968961,0.20582 0.2378437,0.0823 0.4551047,0.17839 0.6517831,0.28816 0.1966784,0.10977 0.3544785,0.25614 0.4734003,0.4391 0.1189219,0.17838 0.1783828,0.40936 0.1783828,0.69294 0,0.25157 -0.064035,0.48484 -0.1921045,0.69981 -0.075487,0.12671 -0.1724273,0.23912 -0.2908197,0.33723 -0.082469,0.0683 -0.1906326,0.16048 -0.3092056,0.20796 0.2649398,-0.86766 0.01566,-1.31082 -0.3261928,-1.64293 z" />
      </g>
    </g>
  </g>
</svg>
