<?xml version="1.0" encoding="UTF-8" standalone="no"?>
<!-- Created with Inkscape (http://www.inkscape.org/) -->

<svg
   xmlns:dc="http://purl.org/dc/elements/1.1/"
   xmlns:cc="http://creativecommons.org/ns#"
   xmlns:rdf="http://www.w3.org/1999/02/22-rdf-syntax-ns#"
   xmlns:svg="http://www.w3.org/2000/svg"
   xmlns="http://www.w3.org/2000/svg"
   xmlns:sodipodi="http://sodipodi.sourceforge.net/DTD/sodipodi-0.dtd"
   xmlns:inkscape="http://www.inkscape.org/namespaces/inkscape"
   width="20"
   height="20"
   viewBox="0 0 5.2916665 5.2916668"
   version="1.1"
   id="svg8"
   sodipodi:docname="fa-github.svg"
   inkscape:version="0.92.3 (2405546, 2018-03-11)">
  <defs
     id="defs2" />
  <sodipodi:namedview
     id="base"
     pagecolor="#ffffff"
     bordercolor="#666666"
     borderopacity="1.0"
     inkscape:pageopacity="0.0"
     inkscape:pageshadow="2"
     inkscape:zoom="22.627417"
     inkscape:cx="10.733306"
     inkscape:cy="8.9175883"
     inkscape:document-units="px"
     inkscape:current-layer="layer1"
     showgrid="false"
     borderlayer="true"
     inkscape:showpageshadow="false"
     units="px"
     showguides="false"
     inkscape:guide-bbox="true"
     inkscape:pagecheckerboard="true"
     inkscape:window-width="1024"
     inkscape:window-height="713"
     inkscape:window-x="0"
     inkscape:window-y="27"
     inkscape:window-maximized="1">
    <sodipodi:guide
       position="5.2600631,0.039970401"
       orientation="0,1"
       id="guide2521"
       inkscape:locked="false" />
    <sodipodi:guide
       position="0.031603406,5.2517263"
       orientation="0,1"
       id="guide2523"
       inkscape:locked="false" />
    <sodipodi:guide
       position="0.031603405,5.2517264"
       orientation="1,0"
       id="guide2525"
       inkscape:locked="false" />
    <sodipodi:guide
       position="5.2600631,0.039970401"
       orientation="1,0"
       id="guide2527"
       inkscape:locked="false" />
  </sodipodi:namedview>
  <metadata
     id="metadata5">
    <rdf:RDF>
      <cc:Work
         rdf:about="">
        <dc:format>image/svg+xml</dc:format>
        <dc:type
           rdf:resource="http://purl.org/dc/dcmitype/StillImage" />
        <dc:title />
      </cc:Work>
    </rdf:RDF>
  </metadata>
  <g
     inkscape:label="Capa 1"
     inkscape:groupmode="layer"
     id="layer1"
     transform="translate(0,-291.70832)">
    <path
       style="fill:#3b3d44;fill-opacity:1;stroke:none;stroke-width:0.8601284px;stroke-linecap:butt;stroke-linejoin:miter;stroke-opacity:1"
       d="m 1.1797058,291.75225 c -0.058695,-0.006 -0.1104931,-0.004 -0.1573931,0.002 -0.11942984,0.30363 -0.13800846,0.60231 -0.0334892,0.89747 -0.56341694,0.51567 -0.66383111,2.45288 1.1971965,2.58863 -0.142158,0.1279 -0.1863499,0.28819 -0.2159976,0.45376 -0.5444519,0.22624 -0.791344,-0.0144 -0.9544085,-0.23608 -0.15044892,-0.25461 -0.3581599,-0.38253 -0.54250576,-0.40521 -0.15556099,-0.0164 -0.25367663,0.0671 -0.0334888,0.21599 0.11589089,0.0639 0.26519782,0.21161 0.35497289,0.44038 0.13159488,0.33448 0.43731897,0.59902 1.16538267,0.45712 l 0.00841,0.44872 c -0.00669,0.22317 0.01207,0.34326 -0.055253,0.34493 0.6585976,-5.6e-4 1.2279843,-2e-5 1.7815626,-2e-5 -0.068249,0 -0.066364,-0.11002 -0.045215,-0.44545 0.013181,-0.6388 0.049174,-1.0284 -0.2277176,-1.27757 0.4315032,-0.0387 0.9144833,-0.18445 1.1955221,-0.51068 0.4827974,-0.56078 0.4837302,-1.6107 0.00505,-2.0746 0.099138,-0.2916 0.079351,-0.60974 -0.033487,-0.89747 -0.192159,-0.0214 -0.4554809,0.0385 -0.9326417,0.34661 -0.4962468,-0.13325 -1.0425227,-0.17048 -1.699517,0 -0.3613265,-0.2339 -0.6009065,-0.32716 -0.776988,-0.34824 z m -0.51404112,3.41578 c 0.0245933,0.0102 0.0386708,0.0334 0.0301391,0.0501 -0.007443,0.0164 -0.0345128,0.023 -0.0586044,0.0104 -0.0245275,-0.0104 -0.0380971,-0.0334 -0.0301392,-0.0501 0.007279,-0.0164 0.0341222,-0.023 0.0586044,-0.0102 z m 0.0870698,0.11721 c 0.0166564,-0.0164 0.04814,-0.008 0.0703256,0.0144 0.02213,0.0226 0.0268943,0.0551 0.0100576,0.0703 -0.0161417,0.0164 -0.0489234,0.008 -0.0703256,-0.0144 -0.02213,-0.0226 -0.0264094,-0.0551 -0.0100576,-0.0703 z m 0.13730111,0.17088 c 0.0209945,-0.0124 0.055794,-4.7e-4 0.0770232,0.0302 0.0206724,0.0292 0.0194937,0.0657 -0.001668,0.0804 -0.0207382,0.0124 -0.054397,-10e-5 -0.0753493,-0.0302 -0.0207382,-0.0292 -0.021186,-0.0657 -2.06e-6,-0.0804 z m 0.15236961,0.19926 c 0.018754,-0.0186 0.057936,-0.0164 0.087067,0.0124 0.029356,0.026 0.038201,0.0667 0.018424,0.087 -0.018527,0.0186 -0.056485,0.0164 -0.085393,-0.0144 -0.029582,-0.026 -0.038696,-0.0649 -0.02009,-0.0853 z m 0.3030664,0.139 c 0.038208,0.0124 0.063213,0.0417 0.055255,0.0687 -0.00817,0.026 -0.045398,0.0396 -0.083719,0.0268 -0.038263,-0.0124 -0.06466,-0.0422 -0.056928,-0.0687 0.00797,-0.026 0.046795,-0.0401 0.085392,-0.0268 z m 0.5090175,0.008 c 0.040001,-0.006 0.075279,0.0103 0.080372,0.0368 0.00479,0.026 -0.022006,0.0561 -0.061948,0.0637 -0.039274,0.006 -0.077062,-0.0102 -0.082041,-0.0368 -0.00489,-0.0292 0.024417,-0.0561 0.063628,-0.0635 z m -0.2494853,0.032 c 0.040223,-7.8e-4 0.071999,0.0236 0.071999,0.0501 9.516e-4,0.0292 -0.031763,0.0499 -0.071999,0.0501 -0.040447,9.6e-4 -0.071553,-0.0224 -0.071999,-0.0485 0,-0.0292 0.031539,-0.0511 0.071999,-0.0517 z"
       id="path1319"
       inkscape:connector-curvature="0"
       sodipodi:nodetypes="ccccccccccccccccccccscccccccccccccccccccccccccccccccccccccc" />
    <path
       inkscape:connector-curvature="0"
       id="path954"
       style="fill:none;stroke:#3a7fc3;stroke-width:0.01729;stroke-linecap:round;stroke-linejoin:miter;stroke-miterlimit:10;stroke-dasharray:none;stroke-opacity:1"
       d="m 0.79010382,294.67037 v 0.009" />
  </g>
</svg>
