<?xml version="1.0" encoding="UTF-8" standalone="no"?>
<!-- Created with Inkscape (http://www.inkscape.org/) -->

<svg
   xmlns:dc="http://purl.org/dc/elements/1.1/"
   xmlns:cc="http://creativecommons.org/ns#"
   xmlns:rdf="http://www.w3.org/1999/02/22-rdf-syntax-ns#"
   xmlns:svg="http://www.w3.org/2000/svg"
   xmlns="http://www.w3.org/2000/svg"
   xmlns:sodipodi="http://sodipodi.sourceforge.net/DTD/sodipodi-0.dtd"
   xmlns:inkscape="http://www.inkscape.org/namespaces/inkscape"
   width="20"
   height="20"
   viewBox="0 0 5.2916665 5.2916668"
   version="1.1"
   id="svg8"
   sodipodi:docname="fa-twitter.svg"
   inkscape:version="0.92.3 (2405546, 2018-03-11)">
  <defs
     id="defs2" />
  <sodipodi:namedview
     id="base"
     pagecolor="#ffffff"
     bordercolor="#666666"
     borderopacity="1.0"
     inkscape:pageopacity="0.0"
     inkscape:pageshadow="2"
     inkscape:zoom="16"
     inkscape:cx="12.821504"
     inkscape:cy="12.34653"
     inkscape:document-units="px"
     inkscape:current-layer="layer1"
     showgrid="false"
     borderlayer="true"
     inkscape:showpageshadow="false"
     units="px"
     showguides="true"
     inkscape:guide-bbox="true"
     inkscape:pagecheckerboard="true"
     inkscape:window-width="1024"
     inkscape:window-height="713"
     inkscape:window-x="0"
     inkscape:window-y="27"
     inkscape:window-maximized="1">
    <sodipodi:guide
       position="5.2600631,0.039970401"
       orientation="0,1"
       id="guide2521"
       inkscape:locked="false" />
    <sodipodi:guide
       position="0.031603406,5.2517263"
       orientation="0,1"
       id="guide2523"
       inkscape:locked="false" />
    <sodipodi:guide
       position="0.031603405,5.2517264"
       orientation="1,0"
       id="guide2525"
       inkscape:locked="false" />
    <sodipodi:guide
       position="5.2600631,0.039970401"
       orientation="1,0"
       id="guide2527"
       inkscape:locked="false" />
  </sodipodi:namedview>
  <metadata
     id="metadata5">
    <rdf:RDF>
      <cc:Work
         rdf:about="">
        <dc:format>image/svg+xml</dc:format>
        <dc:type
           rdf:resource="http://purl.org/dc/dcmitype/StillImage" />
        <dc:title />
      </cc:Work>
    </rdf:RDF>
  </metadata>
  <g
     inkscape:label="Capa 1"
     inkscape:groupmode="layer"
     id="layer1"
     transform="translate(0,-291.70832)">
    <path
       inkscape:connector-curvature="0"
       id="path6644"
       style="fill:#3b3d44;fill-opacity:1;fill-rule:nonzero;stroke:none;stroke-width:0.02691676"
       d="m 5.2397929,292.72022 c -0.166354,0.075 -0.349918,0.12066 -0.528904,0.15082 0.08478,-0.0151 0.209663,-0.1684 0.259999,-0.23037 0.07645,-0.095 0.139705,-0.20359 0.175491,-0.32001 0.0047,-0.0107 0.0078,-0.0192 -0.0018,-0.0278 -0.01132,-0.003 -0.01882,-9.7e-4 -0.02772,9.6e-4 -0.20026,0.10733 -0.406995,0.18479 -0.627444,0.23987 -0.01811,0.003 -0.03176,0 -0.04306,-0.0135 -0.01831,-0.0192 -0.03552,-0.0399 -0.05491,-0.0561 -0.09259,-0.0787 -0.191625,-0.14039 -0.303616,-0.18611 -0.146962,-0.0602 -0.307372,-0.0856 -0.465653,-0.075 -0.15397,0.0107 -0.305491,0.0537 -0.442232,0.12506 -0.137009,0.0716 -0.259218,0.17136 -0.356393,0.29123 -0.100671,0.12429 -0.174958,0.27077 -0.212912,0.42635 -0.03687,0.15037 -0.03364,0.2985 -0.01132,0.45032 0.0035,0.0251 0.0018,0.0285 -0.02153,0.0251 -0.861328,-0.12839 -1.575162,-0.43628 -2.15468496,-1.09687 -0.0253,-0.0285 -0.03848,-0.0285 -0.05949,9.6e-4 -0.253541,0.38008 -0.130549,0.9908 0.186544,1.29092 0.042,0.0399 0.08532,0.0801 0.132165,0.11642 -0.01719,9.8e-4 -0.227989,-0.0192 -0.4156,-0.11642 -0.0253,-0.0151 -0.03795,-0.01 -0.04012,0.0223 -0.0022,0.0408 0.0018,0.0788 0.0068,0.12356 0.04899,0.38523 0.315728,0.74161 0.680993,0.88076 0.04333,0.0168 0.09125,0.0339 0.13809196,0.042 -0.08318,0.0168 -0.16905096,0.0315 -0.40780996,0.0135 -0.02958,-0.003 -0.0409,0.0107 -0.02958,0.0378 0.179518,0.48909 0.56658896,0.63471 0.85673396,0.71761 0.03878,0.01 0.07782,0.01 0.116565,0.0151 -0.0023,9.8e-4 -0.0047,9.8e-4 -0.0068,0.01 -0.09637,0.14671 -0.429865,0.25593 -0.58518296,0.31008 -0.282604,0.0991 -0.589993,0.14338 -0.888776,0.11383 -0.04766,-0.01 -0.05788,-0.01 -0.07079,0 -0.01298,0.01 -0.0018,0.0192 0.01364,0.0319 0.06084,0.0399 0.122227,0.0756 0.185211,0.10974 0.189756,0.10067 0.387319,0.18053 0.594055,0.23762 1.06751296,0.29475 2.26988696,0.0781 3.07145796,-0.71813 0.629327,-0.62529 0.850042,-1.48796 0.850042,-2.35145 0,-0.0335 0.0401,-0.0527 0.06352,-0.0702 0.163903,-0.12278 0.295821,-0.2702 0.418014,-0.43468 0.02773,-0.0367 0.02773,-0.0696 0.02773,-0.0832 0,-9.8e-4 0,-0.003 0,-0.003 0,-0.0136 0,-0.0107 -0.02128,0" />
  </g>
</svg>
